G04 PROTEUS GERBER X2 FILE*
%TF.GenerationSoftware,Labcenter,Proteus,9.1-SP4-Build42914*%
%TF.CreationDate,2026-04-21T21:53:04+00:00*%
%TF.FileFunction,Plated,1,2,PTH*%
%TF.FilePolarity,Positive*%
%TF.Part,Single*%
%TF.SameCoordinates,{34693d12-abab-4ff1-bf86-ec1edc0fcc21}*%
%FSLAX45Y45*%
%MOMM*%
G01*
%TA.AperFunction,ViaDrill*%
%ADD74C,0.381000*%
%ADD75C,0.254000*%
%TA.AperFunction,ComponentDrill*%
%ADD76C,0.762000*%
%ADD77C,0.889000*%
%TA.AperFunction,ComponentDrill*%
%ADD78C,1.016000*%
%TA.AperFunction,ComponentDrill*%
%ADD79C,1.524000*%
%TD.AperFunction*%
D74*
X+843000Y+2545500D03*
X+5161000Y+2037500D03*
X+5318104Y+2383883D03*
X+3065500Y+2863000D03*
X+2606187Y+2597067D03*
D75*
X+4653000Y+1212000D03*
X+4970500Y+2418500D03*
X+4526000Y+1974000D03*
X+4653000Y+2736000D03*
X+4589500Y+2926500D03*
X+4653000Y+3053500D03*
D74*
X+2557500Y+3180500D03*
X+1414500Y+3561500D03*
X+2557500Y+2863000D03*
X+5542000Y+2609000D03*
X+1541500Y+3561500D03*
X+1414500Y+3434500D03*
D75*
X+1541500Y+2418500D03*
X+6050000Y+2291500D03*
X+6558000Y+2799500D03*
X+6494500Y+2418500D03*
X+970000Y+2355000D03*
X+6875500Y+196000D03*
X+6177000Y+2799500D03*
X+6113500Y+2926500D03*
X+5986500Y+3053500D03*
X+5923000Y+1847000D03*
X+3573500Y+2418500D03*
X+3510000Y+2355000D03*
D74*
X+3401353Y+1622146D03*
X+2270000Y+2210000D03*
X+3377091Y+812406D03*
X+2700000Y+1910000D03*
D75*
X+3700500Y+640500D03*
X+3700500Y+1910500D03*
D74*
X+3741554Y+899985D03*
X+3910000Y+1000000D03*
X+5732500Y+1275500D03*
X+1329555Y+2633097D03*
D75*
X+1126000Y+4866000D03*
X+880000Y+4220000D03*
D74*
X+1668500Y+2672500D03*
X+2049500Y+1466000D03*
D76*
X+270000Y+4866000D03*
D77*
X+651000Y+4866000D03*
X+270000Y+4612000D03*
X+651000Y+4612000D03*
X+270000Y+4358000D03*
X+651000Y+4358000D03*
X+270000Y+4104000D03*
X+651000Y+4104000D03*
X+270000Y+3850000D03*
X+651000Y+3850000D03*
X+270000Y+3596000D03*
X+651000Y+3596000D03*
X+270000Y+3342000D03*
X+651000Y+3342000D03*
X+270000Y+3088000D03*
X+651000Y+3088000D03*
X+270000Y+2834000D03*
X+651000Y+2834000D03*
X+270000Y+2580000D03*
X+651000Y+2580000D03*
X+270000Y+2326000D03*
X+651000Y+2326000D03*
X+270000Y+2072000D03*
X+651000Y+2072000D03*
X+270000Y+1818000D03*
X+651000Y+1818000D03*
X+270000Y+1564000D03*
X+651000Y+1564000D03*
X+270000Y+1310000D03*
X+651000Y+1310000D03*
X+270000Y+1056000D03*
X+651000Y+1056000D03*
X+270000Y+802000D03*
X+651000Y+802000D03*
X+270000Y+548000D03*
X+651000Y+548000D03*
X+270000Y+294000D03*
X+651000Y+294000D03*
D76*
X+6366000Y+4870000D03*
D77*
X+6747000Y+4870000D03*
X+6366000Y+4616000D03*
X+6747000Y+4616000D03*
X+6366000Y+4362000D03*
X+6747000Y+4362000D03*
X+6366000Y+4108000D03*
X+6747000Y+4108000D03*
X+6366000Y+3854000D03*
X+6747000Y+3854000D03*
X+6366000Y+3600000D03*
X+6747000Y+3600000D03*
X+6366000Y+3346000D03*
X+6747000Y+3346000D03*
X+6366000Y+3092000D03*
X+6747000Y+3092000D03*
X+6366000Y+2838000D03*
X+6747000Y+2838000D03*
X+6366000Y+2584000D03*
X+6747000Y+2584000D03*
X+6366000Y+2330000D03*
X+6747000Y+2330000D03*
X+6366000Y+2076000D03*
X+6747000Y+2076000D03*
X+6366000Y+1822000D03*
X+6747000Y+1822000D03*
X+6366000Y+1568000D03*
X+6747000Y+1568000D03*
X+6366000Y+1314000D03*
X+6747000Y+1314000D03*
X+6366000Y+1060000D03*
X+6747000Y+1060000D03*
X+6366000Y+806000D03*
X+6747000Y+806000D03*
X+6366000Y+552000D03*
X+6747000Y+552000D03*
X+6366000Y+298000D03*
X+6747000Y+298000D03*
D78*
X+1350000Y+390000D03*
X+1350000Y+644000D03*
X+1350000Y+898000D03*
X+1350000Y+1152000D03*
X+1640000Y+4930000D03*
X+1640000Y+4676000D03*
X+1640000Y+4422000D03*
X+1640000Y+4168000D03*
X+3480000Y+668000D03*
X+3480000Y+414000D03*
X+3480000Y+160000D03*
X+4330000Y+930000D03*
X+4330000Y+1184000D03*
X+4330000Y+1438000D03*
X+4330000Y+1692000D03*
X+4330000Y+1946000D03*
X+4330000Y+2200000D03*
X+4330000Y+2454000D03*
X+4330000Y+2708000D03*
X+4330000Y+2962000D03*
X+4330000Y+3216000D03*
D79*
X+3650000Y+2630000D03*
X+3650000Y+3130380D03*
D78*
X+1340000Y+1520000D03*
X+1340000Y+1774000D03*
X+1340000Y+2028000D03*
X+1340000Y+2282000D03*
D76*
X+1890000Y+10000D03*
D79*
X+5330000Y+4500000D03*
X+5830380Y+4500000D03*
X+2750000Y+170000D03*
X+2750000Y+670380D03*
D76*
X+4860000Y+40000D03*
X+5740000Y+3730000D03*
X+4420000Y+380000D03*
M02*
