G04 PROTEUS GERBER X2 FILE*
%TF.GenerationSoftware,Labcenter,Proteus,9.1-SP4-Build42914*%
%TF.CreationDate,2026-04-21T21:53:04+00:00*%
%TF.FileFunction,Copper,L2,Bot*%
%TF.FilePolarity,Positive*%
%TF.Part,Single*%
%TF.SameCoordinates,{34693d12-abab-4ff1-bf86-ec1edc0fcc21}*%
%FSLAX45Y45*%
%MOMM*%
G01*
%TA.AperFunction,Conductor*%
%ADD10C,0.203200*%
%ADD11C,0.381000*%
%TA.AperFunction,ViaPad*%
%ADD12C,1.016000*%
%ADD13C,0.508000*%
%TA.AperFunction,ComponentPad*%
%ADD15C,1.524000*%
%TA.AperFunction,ComponentPad*%
%ADD19R,2.032000X2.032000*%
%TA.AperFunction,ComponentPad*%
%ADD70C,2.032000*%
%TA.AperFunction,ComponentPad*%
%ADD71C,3.048000*%
%TA.AperFunction,SMDPad,CuDef*%
%ADD22R,0.609600X0.558800*%
%ADD20R,0.609600X0.609600*%
%ADD23R,1.447800X1.143000*%
%ADD24R,1.143000X1.447800*%
%TA.AperFunction,Profile*%
%ADD21C,0.203200*%
%TD.AperFunction*%
D10*
X+1640000Y+4930000D02*
X+1478000Y+4930000D01*
X+1438000Y+4970000D01*
X+1210000Y+4970000D01*
X+1640000Y+4676000D02*
X+1414500Y+4676000D01*
X+1378500Y+4640000D01*
X+1180000Y+4640000D01*
X+1640000Y+4168000D02*
X+1414500Y+4168000D01*
X+1362500Y+4220000D01*
X+1150000Y+4220000D01*
D11*
X+1910000Y+2210000D02*
X+1732000Y+2210000D01*
X+1668500Y+2273500D01*
X+1668500Y+2482000D01*
X+1605000Y+2545500D01*
X+843000Y+2545500D01*
X+651000Y+3088000D02*
X+779500Y+3216500D01*
X+779500Y+3467500D01*
X+651000Y+3596000D01*
X+2130000Y+3270000D02*
X+2616099Y+3270000D01*
X+2717099Y+3371000D01*
X+5097500Y+3371000D01*
X+5161000Y+3307500D01*
X+5161000Y+2353500D01*
X+5224500Y+2290000D01*
X+1541500Y+2863000D02*
X+1414500Y+2863000D01*
X+1385500Y+2834000D01*
X+651000Y+2834000D01*
X+1541500Y+2926500D02*
X+1541500Y+2863000D01*
X+5224500Y+2290000D02*
X+5161000Y+2226500D01*
X+5161000Y+2037500D01*
X+2098550Y+3371000D02*
X+1713867Y+3371000D01*
X+1541500Y+3198633D01*
X+1541500Y+2926500D01*
X+5318104Y+2383883D02*
X+5318104Y+2383604D01*
X+5224500Y+2290000D01*
X+2130000Y+3270000D02*
X+2130000Y+3339550D01*
X+2098550Y+3371000D01*
X+3383000Y+5500D02*
X+3700500Y+5500D01*
X+4399000Y+704000D01*
X+5796000Y+704000D01*
X+5859500Y+767500D01*
X+5859500Y+2418500D01*
X+5796000Y+2482000D01*
X+5415000Y+2482000D01*
X+5330000Y+2567000D01*
X+5330000Y+4500000D01*
X+3383000Y+5500D02*
X+3319500Y+69000D01*
X+3319500Y+253500D01*
X+3480000Y+414000D01*
X+2606187Y+2597067D02*
X+2799567Y+2597067D01*
X+3065500Y+2863000D01*
X+2494000Y+2500000D02*
X+2330000Y+2500000D01*
X+2606187Y+2597067D02*
X+2509120Y+2500000D01*
X+2494000Y+2500000D01*
D10*
X+4653000Y+1212000D02*
X+4625000Y+1184000D01*
X+4330000Y+1184000D01*
X+4970500Y+2418500D02*
X+4970500Y+2078500D01*
X+4330000Y+1438000D01*
X+4526000Y+1974000D02*
X+4498000Y+1946000D01*
X+4330000Y+1946000D01*
X+4653000Y+2736000D02*
X+4653000Y+2523000D01*
X+4330000Y+2200000D01*
X+4589500Y+2926500D02*
X+4589500Y+2713500D01*
X+4330000Y+2454000D01*
X+4653000Y+3053500D02*
X+4589500Y+3053500D01*
X+4526000Y+2990000D01*
X+4526000Y+2904000D01*
X+4330000Y+2708000D01*
D11*
X+2176500Y+640500D02*
X+2176500Y+577000D01*
X+1890000Y+10000D02*
X+1890000Y+290500D01*
X+2176500Y+577000D01*
X+2557500Y+2863000D02*
X+2557500Y+3180500D01*
X+3480000Y+160000D02*
X+3902745Y+582745D01*
X+3902745Y+831000D01*
X+4001745Y+930000D01*
X+4330000Y+930000D01*
X+5830380Y+4500000D02*
X+5542000Y+4211620D01*
X+5542000Y+2609000D01*
X+1414500Y+3434500D02*
X+941000Y+2961000D01*
X+525500Y+2961000D01*
X+462000Y+2897500D01*
X+462000Y+2672500D01*
X+4330000Y+930000D02*
X+5387000Y+930000D01*
X+5732500Y+1275500D01*
X+6366000Y+3854000D02*
X+6494500Y+3854000D01*
X+6558000Y+3917500D01*
X+6558000Y+3942500D01*
X+1640000Y+4422000D02*
X+1795500Y+4422000D01*
X+1795500Y+3815500D01*
X+1541500Y+3561500D01*
X+2240000Y+2672500D02*
X+2430500Y+2863000D01*
X+2557500Y+2863000D01*
X+462000Y+2672500D02*
X+462000Y+2580000D01*
X+270000Y+2580000D01*
X+1541500Y+3561500D02*
X+1414500Y+3561500D01*
X+651000Y+2580000D02*
X+525500Y+2580000D01*
X+525500Y+2609000D01*
X+462000Y+2672500D01*
X+1350000Y+1152000D02*
X+1340000Y+1162000D01*
X+1340000Y+1520000D01*
X+6747000Y+2584000D02*
X+6621500Y+2458500D01*
X+6621500Y+1185500D01*
X+6747000Y+1060000D01*
X+1640000Y+4422000D02*
X+969000Y+4422000D01*
X+651000Y+4104000D01*
X+651000Y+2580000D02*
X+651000Y+2326000D01*
X+2240000Y+2500000D02*
X+2240000Y+2672500D01*
X+1890000Y+1370000D02*
X+1998700Y+1370000D01*
X+2049500Y+1420800D01*
X+2049500Y+1466000D01*
X+1732000Y+894500D02*
X+1732000Y+1021500D01*
X+2176500Y+640500D02*
X+2113000Y+704000D01*
X+2240000Y+2500000D02*
X+2150000Y+2410000D01*
X+2150000Y+2390000D01*
X+1890000Y+1370000D02*
X+1772900Y+1370000D01*
X+1732000Y+1329100D01*
X+1732000Y+1148500D01*
X+1732000Y+1021500D01*
X+1732000Y+894500D02*
X+1922500Y+704000D01*
X+2113000Y+704000D01*
D10*
X+1541500Y+2418500D02*
X+906500Y+2418500D01*
X+843000Y+2355000D01*
X+843000Y+1756000D01*
X+651000Y+1564000D01*
X+6050000Y+2291500D02*
X+6050000Y+2990000D01*
X+6113500Y+3053500D01*
X+6177000Y+3053500D01*
X+6240500Y+2990000D01*
X+6240500Y+2799500D01*
X+6329000Y+2711000D01*
X+6558000Y+2711000D01*
X+6621500Y+2774500D01*
X+6621500Y+3220500D01*
X+6747000Y+3346000D01*
X+6558000Y+2799500D02*
X+6558000Y+3411000D01*
X+6747000Y+3600000D01*
X+6494500Y+2418500D02*
X+6494500Y+2204500D01*
X+6366000Y+2076000D01*
X+970000Y+2355000D02*
X+970000Y+1121000D01*
X+651000Y+802000D01*
X+6875500Y+196000D02*
X+6875500Y+1947500D01*
X+6747000Y+2076000D01*
X+6177000Y+2799500D02*
X+6177000Y+2011000D01*
X+6366000Y+1822000D01*
X+6113500Y+2926500D02*
X+6113500Y+1820500D01*
X+6366000Y+1568000D01*
X+5986500Y+3053500D02*
X+5986500Y+1693500D01*
X+6366000Y+1314000D01*
X+5923000Y+1847000D02*
X+5923000Y+3919000D01*
X+6366000Y+4362000D01*
X+270000Y+4612000D02*
X+397000Y+4739000D01*
X+779500Y+4739000D01*
X+978500Y+4540000D01*
X+1180000Y+4540000D01*
X+3510000Y+2355000D02*
X+3510000Y+2393100D01*
X+3535400Y+2418500D01*
X+3573500Y+2418500D01*
X+3510000Y+2355000D02*
X+3480000Y+2325000D01*
X+3480000Y+668000D01*
D11*
X+3380000Y+1790000D02*
X+3380000Y+1643499D01*
X+3401353Y+1622146D01*
X+1910000Y+2210000D02*
X+2270000Y+2210000D01*
X+3290000Y+1790000D02*
X+3312782Y+1770000D01*
X+3312782Y+876715D01*
X+3377091Y+812406D01*
X+3290000Y+1790000D02*
X+2780000Y+1790000D01*
X+2700000Y+1910000D01*
X+6747000Y+2584000D02*
X+6875500Y+2712500D01*
X+6875500Y+3889125D01*
X+6783625Y+3981000D01*
X+6596500Y+3981000D01*
X+6558000Y+3942500D01*
X+5830380Y+4500000D02*
X+6098380Y+4768000D01*
X+6382165Y+4768000D01*
X+6494500Y+4655665D01*
X+6494500Y+4006000D01*
X+6558000Y+3942500D01*
D10*
X+3700500Y+640500D02*
X+3640000Y+701000D01*
X+3640000Y+1850000D01*
X+3700500Y+1910500D01*
D11*
X+3741554Y+899985D02*
X+3809985Y+899985D01*
X+3910000Y+1000000D01*
X+651000Y+2326000D02*
X+525500Y+2200500D01*
X+525500Y+512639D01*
X+617139Y+421000D01*
X+2040000Y+3270000D02*
X+2040000Y+2599500D01*
X+2030000Y+2550000D01*
X+2030000Y+2460000D01*
X+2049500Y+2418500D01*
X+2070000Y+2420000D01*
X+2080000Y+2400000D01*
X+2150000Y+2390000D01*
X+870000Y+3760000D02*
X+706000Y+3596000D01*
X+651000Y+3596000D01*
X+870000Y+3940000D02*
X+706000Y+4104000D01*
X+651000Y+4104000D01*
X+1350000Y+390000D02*
X+1496550Y+390000D01*
X+1605000Y+498450D01*
X+1605000Y+1466000D01*
X+1610000Y+1520000D01*
X+1610000Y+1530000D01*
X+1605000Y+1593000D01*
X+1605000Y+2218500D01*
X+1541500Y+2282000D01*
X+1340000Y+2282000D01*
X+990000Y+2680000D02*
X+811403Y+2680000D01*
X+727200Y+2764203D01*
X+651000Y+2834000D01*
X+1329555Y+2633097D02*
X+1208332Y+2633097D01*
X+1163221Y+2678208D01*
X+1170000Y+2680000D01*
X+2410000Y+290000D02*
X+2530000Y+170000D01*
X+2750000Y+170000D01*
X+2230000Y+290000D02*
X+2230000Y+293997D01*
X+2576503Y+640500D01*
X+2597600Y+640500D01*
X+2750000Y+670380D01*
X+2176500Y+640500D02*
X+2576503Y+640500D01*
X+2597600Y+640500D02*
X+2751124Y+640500D01*
X+2754520Y+643896D01*
X+2750000Y+670380D01*
X+2750000Y+170000D02*
X+2940000Y+360000D01*
X+2940000Y+753284D01*
X+2279752Y+1413532D01*
X+2279752Y+1883200D01*
X+2428234Y+2031682D01*
X+2428234Y+2401766D01*
X+2330000Y+2500000D01*
X+5510000Y+4850000D02*
X+5330000Y+4670000D01*
X+5330000Y+4652400D01*
X+5330000Y+4500000D01*
X+5690000Y+4850000D02*
X+5830380Y+4709620D01*
X+5830380Y+4500000D01*
D10*
X+1210000Y+4870000D02*
X+1190000Y+4860000D01*
X+1210000Y+4870000D02*
X+1126000Y+4866000D01*
X+1150000Y+4120000D02*
X+980000Y+4120000D01*
X+880000Y+4220000D01*
D11*
X+1541500Y+2863000D02*
X+1541500Y+2799500D01*
X+1631303Y+2799500D01*
X+1668500Y+2762303D01*
X+1668500Y+2672500D01*
X+1350000Y+644000D02*
X+1231063Y+644000D01*
X+1105027Y+770036D01*
X+1033500Y+770036D01*
X+617139Y+421000D02*
X+884711Y+421000D01*
X+1033500Y+569789D01*
X+1033500Y+770036D01*
X+1033500Y+993750D01*
X+1191750Y+1152000D01*
X+1350000Y+1152000D01*
X+2049500Y+1466000D02*
X+2049500Y+1890000D01*
X+2050000Y+1890000D01*
X+2160000Y+1970000D01*
X+2263756Y+2037500D01*
X+2367000Y+2140744D01*
X+2367000Y+2291500D01*
X+2268500Y+2390000D01*
X+2150000Y+2390000D01*
D12*
X+843000Y+2545500D03*
X+5161000Y+2037500D03*
X+5318104Y+2383883D03*
X+3065500Y+2863000D03*
X+2606187Y+2597067D03*
D13*
X+4653000Y+1212000D03*
X+4970500Y+2418500D03*
X+4526000Y+1974000D03*
X+4653000Y+2736000D03*
X+4589500Y+2926500D03*
X+4653000Y+3053500D03*
D12*
X+2557500Y+3180500D03*
X+1414500Y+3561500D03*
X+2557500Y+2863000D03*
X+5542000Y+2609000D03*
X+1541500Y+3561500D03*
X+1414500Y+3434500D03*
D13*
X+1541500Y+2418500D03*
X+6050000Y+2291500D03*
X+6558000Y+2799500D03*
X+6494500Y+2418500D03*
X+970000Y+2355000D03*
X+6875500Y+196000D03*
X+6177000Y+2799500D03*
X+6113500Y+2926500D03*
X+5986500Y+3053500D03*
X+5923000Y+1847000D03*
X+3573500Y+2418500D03*
X+3510000Y+2355000D03*
D12*
X+3401353Y+1622146D03*
X+2270000Y+2210000D03*
X+3377091Y+812406D03*
X+2700000Y+1910000D03*
D13*
X+3700500Y+640500D03*
X+3700500Y+1910500D03*
D12*
X+3741554Y+899985D03*
X+3910000Y+1000000D03*
X+5732500Y+1275500D03*
X+1329555Y+2633097D03*
D13*
X+1126000Y+4866000D03*
X+880000Y+4220000D03*
D12*
X+1668500Y+2672500D03*
X+2049500Y+1466000D03*
D15*
X+651000Y+4866000D03*
X+270000Y+4612000D03*
X+651000Y+4612000D03*
X+270000Y+4358000D03*
X+651000Y+4358000D03*
X+270000Y+4104000D03*
X+651000Y+4104000D03*
X+270000Y+3850000D03*
X+651000Y+3850000D03*
X+270000Y+3596000D03*
X+651000Y+3596000D03*
X+270000Y+3342000D03*
X+651000Y+3342000D03*
X+270000Y+3088000D03*
X+651000Y+3088000D03*
X+270000Y+2834000D03*
X+651000Y+2834000D03*
X+270000Y+2580000D03*
X+651000Y+2580000D03*
X+270000Y+2326000D03*
X+651000Y+2326000D03*
X+270000Y+2072000D03*
X+651000Y+2072000D03*
X+270000Y+1818000D03*
X+651000Y+1818000D03*
X+270000Y+1564000D03*
X+651000Y+1564000D03*
X+270000Y+1310000D03*
X+651000Y+1310000D03*
X+270000Y+1056000D03*
X+651000Y+1056000D03*
X+270000Y+802000D03*
X+651000Y+802000D03*
X+270000Y+548000D03*
X+651000Y+548000D03*
X+270000Y+294000D03*
X+651000Y+294000D03*
X+6747000Y+4870000D03*
X+6366000Y+4616000D03*
X+6747000Y+4616000D03*
X+6366000Y+4362000D03*
X+6747000Y+4362000D03*
X+6366000Y+4108000D03*
X+6747000Y+4108000D03*
X+6366000Y+3854000D03*
X+6747000Y+3854000D03*
X+6366000Y+3600000D03*
X+6747000Y+3600000D03*
X+6366000Y+3346000D03*
X+6747000Y+3346000D03*
X+6366000Y+3092000D03*
X+6747000Y+3092000D03*
X+6366000Y+2838000D03*
X+6747000Y+2838000D03*
X+6366000Y+2584000D03*
X+6747000Y+2584000D03*
X+6366000Y+2330000D03*
X+6747000Y+2330000D03*
X+6366000Y+2076000D03*
X+6747000Y+2076000D03*
X+6366000Y+1822000D03*
X+6747000Y+1822000D03*
X+6366000Y+1568000D03*
X+6747000Y+1568000D03*
X+6366000Y+1314000D03*
X+6747000Y+1314000D03*
X+6366000Y+1060000D03*
X+6747000Y+1060000D03*
X+6366000Y+806000D03*
X+6747000Y+806000D03*
X+6366000Y+552000D03*
X+6747000Y+552000D03*
X+6366000Y+298000D03*
X+6747000Y+298000D03*
D19*
X+1350000Y+390000D03*
X+1350000Y+644000D03*
X+1350000Y+898000D03*
X+1350000Y+1152000D03*
X+1640000Y+4930000D03*
X+1640000Y+4676000D03*
X+1640000Y+4422000D03*
X+1640000Y+4168000D03*
D70*
X+3480000Y+668000D03*
X+3480000Y+414000D03*
X+3480000Y+160000D03*
D19*
X+4330000Y+930000D03*
X+4330000Y+1184000D03*
X+4330000Y+1438000D03*
X+4330000Y+1692000D03*
X+4330000Y+1946000D03*
X+4330000Y+2200000D03*
X+4330000Y+2454000D03*
X+4330000Y+2708000D03*
X+4330000Y+2962000D03*
X+4330000Y+3216000D03*
D71*
X+3650000Y+2630000D03*
X+3650000Y+3130380D03*
D19*
X+1340000Y+1520000D03*
X+1340000Y+1774000D03*
X+1340000Y+2028000D03*
X+1340000Y+2282000D03*
D22*
X+1210000Y+4870000D03*
X+1210000Y+4970000D03*
X+1180000Y+4540000D03*
X+1180000Y+4640000D03*
X+1150000Y+4120000D03*
X+1150000Y+4220000D03*
D20*
X+2130000Y+3270000D03*
X+2040000Y+3270000D03*
X+3290000Y+1790000D03*
X+3380000Y+1790000D03*
D70*
X+1890000Y+10000D03*
D20*
X+2330000Y+2500000D03*
X+2240000Y+2500000D03*
D71*
X+5330000Y+4500000D03*
X+5830380Y+4500000D03*
X+2750000Y+170000D03*
X+2750000Y+670380D03*
D70*
X+4860000Y+40000D03*
X+5740000Y+3730000D03*
X+4420000Y+380000D03*
D23*
X+870000Y+3760000D03*
X+870000Y+3940000D03*
D24*
X+990000Y+2680000D03*
X+1170000Y+2680000D03*
X+2410000Y+290000D03*
X+2230000Y+290000D03*
X+5510000Y+4850000D03*
X+5690000Y+4850000D03*
D21*
X+10000Y-10000D02*
X+1660000Y-10000D01*
X+7010000Y-10000D02*
X+7010000Y+5990000D01*
X+5010000Y+5990000D01*
X+5010000Y+3690000D01*
X+4810000Y+3490000D01*
X+2210000Y+3490000D01*
X+2010000Y+3690000D02*
X+2010000Y+5990000D01*
X+10000Y+5990000D01*
X+10000Y-10000D01*
X+2010000Y+3690000D02*
X+2210000Y+3490000D01*
X+5170000Y-10000D02*
X+7010000Y-10000D01*
X+1760000Y-210000D02*
X+5060000Y-210000D01*
X+1660000Y-10000D02*
X+1760000Y-210000D01*
X+5170000Y-10000D02*
X+5060000Y-210000D01*
X+4560045Y+40000D02*
X+4559508Y+53142D01*
X+4555144Y+79427D01*
X+4546029Y+105712D01*
X+4531182Y+131997D01*
X+4508470Y+158118D01*
X+4482185Y+177898D01*
X+4455900Y+190658D01*
X+4429615Y+198108D01*
X+4403330Y+200987D01*
X+4399000Y+201045D01*
X+4237955Y+40000D02*
X+4238492Y+53142D01*
X+4242856Y+79427D01*
X+4251971Y+105712D01*
X+4266818Y+131997D01*
X+4289530Y+158118D01*
X+4315815Y+177898D01*
X+4342100Y+190658D01*
X+4368385Y+198108D01*
X+4394670Y+200987D01*
X+4399000Y+201045D01*
X+4237955Y+40000D02*
X+4238492Y+26858D01*
X+4242856Y+573D01*
X+4251971Y-25712D01*
X+4266818Y-51997D01*
X+4289530Y-78118D01*
X+4315815Y-97898D01*
X+4342100Y-110658D01*
X+4368385Y-118108D01*
X+4394670Y-120987D01*
X+4399000Y-121045D01*
X+4560045Y+40000D02*
X+4559508Y+26858D01*
X+4555144Y+573D01*
X+4546029Y-25712D01*
X+4531182Y-51997D01*
X+4508470Y-78118D01*
X+4482185Y-97898D01*
X+4455900Y-110658D01*
X+4429615Y-118108D01*
X+4403330Y-120987D01*
X+4399000Y-121045D01*
X+6084045Y+5120000D02*
X+6083508Y+5133142D01*
X+6079144Y+5159427D01*
X+6070029Y+5185712D01*
X+6055182Y+5211997D01*
X+6032470Y+5238118D01*
X+6006185Y+5257898D01*
X+5979900Y+5270658D01*
X+5953615Y+5278108D01*
X+5927330Y+5280987D01*
X+5923000Y+5281045D01*
X+5761955Y+5120000D02*
X+5762492Y+5133142D01*
X+5766856Y+5159427D01*
X+5775971Y+5185712D01*
X+5790818Y+5211997D01*
X+5813530Y+5238118D01*
X+5839815Y+5257898D01*
X+5866100Y+5270658D01*
X+5892385Y+5278108D01*
X+5918670Y+5280987D01*
X+5923000Y+5281045D01*
X+5761955Y+5120000D02*
X+5762492Y+5106858D01*
X+5766856Y+5080573D01*
X+5775971Y+5054288D01*
X+5790818Y+5028003D01*
X+5813530Y+5001882D01*
X+5839815Y+4982102D01*
X+5866100Y+4969342D01*
X+5892385Y+4961892D01*
X+5918670Y+4959013D01*
X+5923000Y+4958955D01*
X+6084045Y+5120000D02*
X+6083508Y+5106858D01*
X+6079144Y+5080573D01*
X+6070029Y+5054288D01*
X+6055182Y+5028003D01*
X+6032470Y+5001882D01*
X+6006185Y+4982102D01*
X+5979900Y+4969342D01*
X+5953615Y+4961892D01*
X+5927330Y+4959013D01*
X+5923000Y+4958955D01*
X+1258045Y+5247000D02*
X+1257508Y+5260142D01*
X+1253144Y+5286427D01*
X+1244029Y+5312712D01*
X+1229182Y+5338997D01*
X+1206470Y+5365118D01*
X+1180185Y+5384898D01*
X+1153900Y+5397658D01*
X+1127615Y+5405108D01*
X+1101330Y+5407987D01*
X+1097000Y+5408045D01*
X+935955Y+5247000D02*
X+936492Y+5260142D01*
X+940856Y+5286427D01*
X+949971Y+5312712D01*
X+964818Y+5338997D01*
X+987530Y+5365118D01*
X+1013815Y+5384898D01*
X+1040100Y+5397658D01*
X+1066385Y+5405108D01*
X+1092670Y+5407987D01*
X+1097000Y+5408045D01*
X+935955Y+5247000D02*
X+936492Y+5233858D01*
X+940856Y+5207573D01*
X+949971Y+5181288D01*
X+964818Y+5155003D01*
X+987530Y+5128882D01*
X+1013815Y+5109102D01*
X+1040100Y+5096342D01*
X+1066385Y+5088892D01*
X+1092670Y+5086013D01*
X+1097000Y+5085955D01*
X+1258045Y+5247000D02*
X+1257508Y+5233858D01*
X+1253144Y+5207573D01*
X+1244029Y+5181288D01*
X+1229182Y+5155003D01*
X+1206470Y+5128882D01*
X+1180185Y+5109102D01*
X+1153900Y+5096342D01*
X+1127615Y+5088892D01*
X+1101330Y+5086013D01*
X+1097000Y+5085955D01*
M02*
