G04 PROTEUS GERBER X2 FILE*
%TF.GenerationSoftware,Labcenter,Proteus,9.1-SP4-Build42914*%
%TF.CreationDate,2026-04-21T21:53:04+00:00*%
%TF.FileFunction,Legend,Top*%
%TF.FilePolarity,Positive*%
%TF.Part,Single*%
%TF.SameCoordinates,{34693d12-abab-4ff1-bf86-ec1edc0fcc21}*%
%FSLAX45Y45*%
%MOMM*%
G01*
%TA.AperFunction,Profile*%
%ADD21C,0.203200*%
%TA.AperFunction,Material*%
%ADD25C,0.203200*%
%TD.AperFunction*%
D21*
X+10000Y-10000D02*
X+1660000Y-10000D01*
X+7010000Y-10000D02*
X+7010000Y+5990000D01*
X+5010000Y+5990000D01*
X+5010000Y+3690000D01*
X+4810000Y+3490000D01*
X+2210000Y+3490000D01*
X+2010000Y+3690000D02*
X+2010000Y+5990000D01*
X+10000Y+5990000D01*
X+10000Y-10000D01*
X+2010000Y+3690000D02*
X+2210000Y+3490000D01*
X+5170000Y-10000D02*
X+7010000Y-10000D01*
X+1760000Y-210000D02*
X+5060000Y-210000D01*
X+1660000Y-10000D02*
X+1760000Y-210000D01*
X+5170000Y-10000D02*
X+5060000Y-210000D01*
X+4560045Y+40000D02*
X+4559508Y+53142D01*
X+4555144Y+79427D01*
X+4546029Y+105712D01*
X+4531182Y+131997D01*
X+4508470Y+158118D01*
X+4482185Y+177898D01*
X+4455900Y+190658D01*
X+4429615Y+198108D01*
X+4403330Y+200987D01*
X+4399000Y+201045D01*
X+4237955Y+40000D02*
X+4238492Y+53142D01*
X+4242856Y+79427D01*
X+4251971Y+105712D01*
X+4266818Y+131997D01*
X+4289530Y+158118D01*
X+4315815Y+177898D01*
X+4342100Y+190658D01*
X+4368385Y+198108D01*
X+4394670Y+200987D01*
X+4399000Y+201045D01*
X+4237955Y+40000D02*
X+4238492Y+26858D01*
X+4242856Y+573D01*
X+4251971Y-25712D01*
X+4266818Y-51997D01*
X+4289530Y-78118D01*
X+4315815Y-97898D01*
X+4342100Y-110658D01*
X+4368385Y-118108D01*
X+4394670Y-120987D01*
X+4399000Y-121045D01*
X+4560045Y+40000D02*
X+4559508Y+26858D01*
X+4555144Y+573D01*
X+4546029Y-25712D01*
X+4531182Y-51997D01*
X+4508470Y-78118D01*
X+4482185Y-97898D01*
X+4455900Y-110658D01*
X+4429615Y-118108D01*
X+4403330Y-120987D01*
X+4399000Y-121045D01*
X+6084045Y+5120000D02*
X+6083508Y+5133142D01*
X+6079144Y+5159427D01*
X+6070029Y+5185712D01*
X+6055182Y+5211997D01*
X+6032470Y+5238118D01*
X+6006185Y+5257898D01*
X+5979900Y+5270658D01*
X+5953615Y+5278108D01*
X+5927330Y+5280987D01*
X+5923000Y+5281045D01*
X+5761955Y+5120000D02*
X+5762492Y+5133142D01*
X+5766856Y+5159427D01*
X+5775971Y+5185712D01*
X+5790818Y+5211997D01*
X+5813530Y+5238118D01*
X+5839815Y+5257898D01*
X+5866100Y+5270658D01*
X+5892385Y+5278108D01*
X+5918670Y+5280987D01*
X+5923000Y+5281045D01*
X+5761955Y+5120000D02*
X+5762492Y+5106858D01*
X+5766856Y+5080573D01*
X+5775971Y+5054288D01*
X+5790818Y+5028003D01*
X+5813530Y+5001882D01*
X+5839815Y+4982102D01*
X+5866100Y+4969342D01*
X+5892385Y+4961892D01*
X+5918670Y+4959013D01*
X+5923000Y+4958955D01*
X+6084045Y+5120000D02*
X+6083508Y+5106858D01*
X+6079144Y+5080573D01*
X+6070029Y+5054288D01*
X+6055182Y+5028003D01*
X+6032470Y+5001882D01*
X+6006185Y+4982102D01*
X+5979900Y+4969342D01*
X+5953615Y+4961892D01*
X+5927330Y+4959013D01*
X+5923000Y+4958955D01*
X+1258045Y+5247000D02*
X+1257508Y+5260142D01*
X+1253144Y+5286427D01*
X+1244029Y+5312712D01*
X+1229182Y+5338997D01*
X+1206470Y+5365118D01*
X+1180185Y+5384898D01*
X+1153900Y+5397658D01*
X+1127615Y+5405108D01*
X+1101330Y+5407987D01*
X+1097000Y+5408045D01*
X+935955Y+5247000D02*
X+936492Y+5260142D01*
X+940856Y+5286427D01*
X+949971Y+5312712D01*
X+964818Y+5338997D01*
X+987530Y+5365118D01*
X+1013815Y+5384898D01*
X+1040100Y+5397658D01*
X+1066385Y+5405108D01*
X+1092670Y+5407987D01*
X+1097000Y+5408045D01*
X+935955Y+5247000D02*
X+936492Y+5233858D01*
X+940856Y+5207573D01*
X+949971Y+5181288D01*
X+964818Y+5155003D01*
X+987530Y+5128882D01*
X+1013815Y+5109102D01*
X+1040100Y+5096342D01*
X+1066385Y+5088892D01*
X+1092670Y+5086013D01*
X+1097000Y+5085955D01*
X+1258045Y+5247000D02*
X+1257508Y+5233858D01*
X+1253144Y+5207573D01*
X+1244029Y+5181288D01*
X+1229182Y+5155003D01*
X+1206470Y+5128882D01*
X+1180185Y+5109102D01*
X+1153900Y+5096342D01*
X+1127615Y+5088892D01*
X+1101330Y+5086013D01*
X+1097000Y+5085955D01*
D25*
X+5741000Y+1101000D02*
X+5779100Y+1101000D01*
X+5779100Y+339000D01*
X+5461600Y+339000D01*
X+5258400Y+339000D02*
X+4940900Y+339000D01*
X+4940900Y+1101000D01*
X+4979000Y+1101000D01*
X+5512400Y+1113700D02*
X+5487000Y+1113700D01*
X+5487000Y+1088300D01*
X+5233000Y+1088300D01*
X+5233000Y+1113700D01*
X+5207600Y+1113700D01*
X+5243000Y+1348360D02*
X+5243000Y+1272160D01*
X+5258875Y+1256920D01*
X+5322375Y+1256920D01*
X+5338250Y+1272160D01*
X+5338250Y+1348360D01*
X+5465250Y+1348360D02*
X+5385875Y+1348360D01*
X+5385875Y+1317880D01*
X+5449375Y+1317880D01*
X+5465250Y+1302640D01*
X+5465250Y+1272160D01*
X+5449375Y+1256920D01*
X+5401750Y+1256920D01*
X+5385875Y+1272160D01*
X+1567950Y+2792480D02*
X+1486988Y+2792480D01*
X+1484906Y+2803101D01*
X+1479187Y+2811667D01*
X+1470621Y+2817386D01*
X+1460000Y+2819468D01*
X+1433012Y+2792480D02*
X+1435094Y+2803101D01*
X+1440814Y+2811667D01*
X+1449379Y+2817386D01*
X+1460000Y+2819468D01*
X+1433012Y+2792480D02*
X+1352050Y+2792480D01*
X+1491750Y+3747520D02*
X+1428250Y+3747520D01*
X+1567950Y+2825500D02*
X+1567950Y+3714500D01*
X+1352050Y+2825500D02*
X+1352050Y+3714500D01*
X+1567950Y+2825500D02*
X+1567950Y+2792480D01*
X+1352050Y+2792480D02*
X+1352050Y+2825500D01*
X+1428250Y+3747520D02*
X+1352050Y+3747520D01*
X+1352050Y+3714500D01*
X+1567950Y+3714500D02*
X+1567950Y+3747520D01*
X+1491750Y+3747520D01*
X+1542550Y+2841756D02*
X+1542515Y+2842601D01*
X+1542228Y+2844292D01*
X+1541629Y+2845983D01*
X+1540649Y+2847674D01*
X+1539149Y+2849342D01*
X+1537458Y+2850562D01*
X+1535767Y+2851338D01*
X+1534076Y+2851775D01*
X+1532390Y+2851916D01*
X+1522230Y+2841756D02*
X+1522265Y+2842601D01*
X+1522552Y+2844292D01*
X+1523151Y+2845983D01*
X+1524131Y+2847674D01*
X+1525631Y+2849342D01*
X+1527322Y+2850562D01*
X+1529013Y+2851338D01*
X+1530704Y+2851775D01*
X+1532390Y+2851916D01*
X+1522230Y+2841756D02*
X+1522265Y+2840911D01*
X+1522552Y+2839220D01*
X+1523151Y+2837529D01*
X+1524131Y+2835838D01*
X+1525631Y+2834170D01*
X+1527322Y+2832950D01*
X+1529013Y+2832174D01*
X+1530704Y+2831737D01*
X+1532390Y+2831596D01*
X+1542550Y+2841756D02*
X+1542515Y+2840911D01*
X+1542228Y+2839220D01*
X+1541629Y+2837529D01*
X+1540649Y+2835838D01*
X+1539149Y+2834170D01*
X+1537458Y+2832950D01*
X+1535767Y+2832174D01*
X+1534076Y+2831737D01*
X+1532390Y+2831596D01*
X+1333000Y+2690920D02*
X+1333000Y+2614720D01*
X+1348875Y+2599480D01*
X+1412375Y+2599480D01*
X+1428250Y+2614720D01*
X+1428250Y+2690920D01*
X+1475875Y+2675680D02*
X+1491750Y+2690920D01*
X+1539375Y+2690920D01*
X+1555250Y+2675680D01*
X+1555250Y+2660440D01*
X+1539375Y+2645200D01*
X+1491750Y+2645200D01*
X+1475875Y+2629960D01*
X+1475875Y+2599480D01*
X+1555250Y+2599480D01*
X+2697950Y+2696480D02*
X+2616988Y+2696480D01*
X+2614906Y+2707101D01*
X+2609187Y+2715667D01*
X+2600621Y+2721386D01*
X+2590000Y+2723468D01*
X+2563012Y+2696480D02*
X+2565094Y+2707101D01*
X+2570814Y+2715667D01*
X+2579379Y+2721386D01*
X+2590000Y+2723468D01*
X+2563012Y+2696480D02*
X+2482050Y+2696480D01*
X+2621750Y+3143520D02*
X+2558250Y+3143520D01*
X+2697950Y+2729500D02*
X+2697950Y+3110500D01*
X+2482050Y+2729500D02*
X+2482050Y+3110500D01*
X+2697950Y+2729500D02*
X+2697950Y+2696480D01*
X+2482050Y+2696480D02*
X+2482050Y+2729500D01*
X+2558250Y+3143520D02*
X+2482050Y+3143520D01*
X+2482050Y+3110500D01*
X+2697950Y+3110500D02*
X+2697950Y+3143520D01*
X+2621750Y+3143520D01*
X+2672550Y+2745756D02*
X+2672515Y+2746601D01*
X+2672228Y+2748292D01*
X+2671629Y+2749983D01*
X+2670649Y+2751674D01*
X+2669149Y+2753342D01*
X+2667458Y+2754562D01*
X+2665767Y+2755338D01*
X+2664076Y+2755775D01*
X+2662390Y+2755916D01*
X+2652230Y+2745756D02*
X+2652265Y+2746601D01*
X+2652552Y+2748292D01*
X+2653151Y+2749983D01*
X+2654131Y+2751674D01*
X+2655631Y+2753342D01*
X+2657322Y+2754562D01*
X+2659013Y+2755338D01*
X+2660704Y+2755775D01*
X+2662390Y+2755916D01*
X+2652230Y+2745756D02*
X+2652265Y+2744911D01*
X+2652552Y+2743220D01*
X+2653151Y+2741529D01*
X+2654131Y+2739838D01*
X+2655631Y+2738170D01*
X+2657322Y+2736950D01*
X+2659013Y+2736174D01*
X+2660704Y+2735737D01*
X+2662390Y+2735596D01*
X+2672550Y+2745756D02*
X+2672515Y+2744911D01*
X+2672228Y+2743220D01*
X+2671629Y+2741529D01*
X+2670649Y+2739838D01*
X+2669149Y+2738170D01*
X+2667458Y+2736950D01*
X+2665767Y+2736174D01*
X+2664076Y+2735737D01*
X+2662390Y+2735596D01*
X+2469187Y+2537487D02*
X+2469187Y+2461287D01*
X+2485062Y+2446047D01*
X+2548562Y+2446047D01*
X+2564437Y+2461287D01*
X+2564437Y+2537487D01*
X+2691437Y+2476527D02*
X+2596187Y+2476527D01*
X+2659687Y+2537487D01*
X+2659687Y+2446047D01*
X+5584800Y+2005480D02*
X+5356200Y+2005480D01*
X+5350321Y+2035469D01*
X+5334173Y+2059654D01*
X+5309989Y+2075801D01*
X+5280000Y+2081680D01*
X+5203800Y+2005480D02*
X+5209679Y+2035469D01*
X+5225827Y+2059654D01*
X+5250011Y+2075801D01*
X+5280000Y+2081680D01*
X+5203800Y+2005480D02*
X+4975200Y+2005480D01*
X+5508600Y+3214520D02*
X+5051400Y+3214520D01*
X+5584800Y+2038500D02*
X+5584800Y+3181500D01*
X+4975200Y+2038500D02*
X+4975200Y+3181500D01*
X+5584800Y+2038500D02*
X+5584800Y+2005480D01*
X+4975200Y+2005480D02*
X+4975200Y+2038500D01*
X+5051400Y+3214520D02*
X+4975200Y+3214520D01*
X+4975200Y+3181500D01*
X+5584800Y+3181500D02*
X+5584800Y+3214520D01*
X+5508600Y+3214520D01*
X+5559400Y+2054756D02*
X+5559365Y+2055601D01*
X+5559078Y+2057292D01*
X+5558479Y+2058983D01*
X+5557499Y+2060674D01*
X+5555999Y+2062342D01*
X+5554308Y+2063562D01*
X+5552617Y+2064338D01*
X+5550926Y+2064775D01*
X+5549240Y+2064916D01*
X+5539080Y+2054756D02*
X+5539115Y+2055601D01*
X+5539402Y+2057292D01*
X+5540001Y+2058983D01*
X+5540981Y+2060674D01*
X+5542481Y+2062342D01*
X+5544172Y+2063562D01*
X+5545863Y+2064338D01*
X+5547554Y+2064775D01*
X+5549240Y+2064916D01*
X+5539080Y+2054756D02*
X+5539115Y+2053911D01*
X+5539402Y+2052220D01*
X+5540001Y+2050529D01*
X+5540981Y+2048838D01*
X+5542481Y+2047170D01*
X+5544172Y+2045950D01*
X+5545863Y+2045174D01*
X+5547554Y+2044737D01*
X+5549240Y+2044596D01*
X+5559400Y+2054756D02*
X+5559365Y+2053911D01*
X+5559078Y+2052220D01*
X+5558479Y+2050529D01*
X+5557499Y+2048838D01*
X+5555999Y+2047170D01*
X+5554308Y+2045950D01*
X+5552617Y+2045174D01*
X+5550926Y+2044737D01*
X+5549240Y+2044596D01*
X+5173000Y+3349420D02*
X+5173000Y+3273220D01*
X+5188875Y+3257980D01*
X+5252375Y+3257980D01*
X+5268250Y+3273220D01*
X+5268250Y+3349420D01*
X+5331750Y+3318940D02*
X+5363500Y+3349420D01*
X+5363500Y+3257980D01*
X+2665480Y+1405200D02*
X+2665480Y+1633800D01*
X+2695469Y+1639679D01*
X+2719654Y+1655827D01*
X+2735801Y+1680011D01*
X+2741680Y+1710000D01*
X+2665480Y+1786200D02*
X+2695469Y+1780321D01*
X+2719654Y+1764173D01*
X+2735801Y+1739989D01*
X+2741680Y+1710000D01*
X+2665480Y+1786200D02*
X+2665480Y+2014800D01*
X+3874520Y+1481400D02*
X+3874520Y+1938600D01*
X+2698500Y+1405200D02*
X+3841500Y+1405200D01*
X+2698500Y+2014800D02*
X+3841500Y+2014800D01*
X+2698500Y+1405200D02*
X+2665480Y+1405200D01*
X+2665480Y+2014800D02*
X+2698500Y+2014800D01*
X+3874520Y+1938600D02*
X+3874520Y+2014800D01*
X+3841500Y+2014800D01*
X+3841500Y+1405200D02*
X+3874520Y+1405200D01*
X+3874520Y+1481400D01*
X+2724916Y+1440760D02*
X+2724881Y+1441605D01*
X+2724594Y+1443296D01*
X+2723995Y+1444987D01*
X+2723015Y+1446678D01*
X+2721515Y+1448346D01*
X+2719824Y+1449566D01*
X+2718133Y+1450342D01*
X+2716442Y+1450779D01*
X+2714756Y+1450920D01*
X+2704596Y+1440760D02*
X+2704631Y+1441605D01*
X+2704918Y+1443296D01*
X+2705517Y+1444987D01*
X+2706497Y+1446678D01*
X+2707997Y+1448346D01*
X+2709688Y+1449566D01*
X+2711379Y+1450342D01*
X+2713070Y+1450779D01*
X+2714756Y+1450920D01*
X+2704596Y+1440760D02*
X+2704631Y+1439915D01*
X+2704918Y+1438224D01*
X+2705517Y+1436533D01*
X+2706497Y+1434842D01*
X+2707997Y+1433174D01*
X+2709688Y+1431954D01*
X+2711379Y+1431178D01*
X+2713070Y+1430741D01*
X+2714756Y+1430600D01*
X+2724916Y+1440760D02*
X+2724881Y+1439915D01*
X+2724594Y+1438224D01*
X+2723995Y+1436533D01*
X+2723015Y+1434842D01*
X+2721515Y+1433174D01*
X+2719824Y+1431954D01*
X+2718133Y+1431178D01*
X+2716442Y+1430741D01*
X+2714756Y+1430600D01*
X+2467980Y+1593000D02*
X+2544180Y+1593000D01*
X+2559420Y+1608875D01*
X+2559420Y+1672375D01*
X+2544180Y+1688250D01*
X+2467980Y+1688250D01*
X+2483220Y+1735875D02*
X+2467980Y+1751750D01*
X+2467980Y+1799375D01*
X+2483220Y+1815250D01*
X+2498460Y+1815250D01*
X+2513700Y+1799375D01*
X+2528940Y+1815250D01*
X+2544180Y+1815250D01*
X+2559420Y+1799375D01*
X+2559420Y+1751750D01*
X+2544180Y+1735875D01*
X+2513700Y+1767625D02*
X+2513700Y+1799375D01*
X+1223000Y+263000D02*
X+1477000Y+263000D01*
X+1477000Y+1279000D01*
X+1223000Y+1279000D01*
X+1223000Y+263000D01*
X+1151880Y+644000D02*
X+1167120Y+644000D01*
X+1182360Y+659875D01*
X+1182360Y+723375D01*
X+1167120Y+739250D01*
X+1090920Y+739250D01*
X+1090920Y+786875D02*
X+1090920Y+866250D01*
X+1106160Y+866250D01*
X+1182360Y+786875D01*
X+1513000Y+4041000D02*
X+1767000Y+4041000D01*
X+1767000Y+5057000D01*
X+1513000Y+5057000D01*
X+1513000Y+4041000D01*
X+1868600Y+4422000D02*
X+1883840Y+4422000D01*
X+1899080Y+4437875D01*
X+1899080Y+4501375D01*
X+1883840Y+4517250D01*
X+1807640Y+4517250D01*
X+1838120Y+4580750D02*
X+1807640Y+4612500D01*
X+1899080Y+4612500D01*
X+3226000Y-94000D02*
X+3861000Y-94000D01*
X+3861000Y+922000D01*
X+3226000Y+922000D01*
X+3226000Y-94000D01*
X+3734000Y+922000D02*
X+3734000Y-94000D01*
X+3962600Y+287000D02*
X+3977840Y+287000D01*
X+3993080Y+302875D01*
X+3993080Y+366375D01*
X+3977840Y+382250D01*
X+3901640Y+382250D01*
X+3916880Y+429875D02*
X+3901640Y+445750D01*
X+3901640Y+493375D01*
X+3916880Y+509250D01*
X+3932120Y+509250D01*
X+3947360Y+493375D01*
X+3947360Y+445750D01*
X+3962600Y+429875D01*
X+3993080Y+429875D01*
X+3993080Y+509250D01*
X+4203000Y+803000D02*
X+4457000Y+803000D01*
X+4457000Y+3343000D01*
X+4203000Y+3343000D01*
X+4203000Y+803000D01*
X+4131880Y+1946000D02*
X+4147120Y+1946000D01*
X+4162360Y+1961875D01*
X+4162360Y+2025375D01*
X+4147120Y+2041250D01*
X+4070920Y+2041250D01*
X+4086160Y+2088875D02*
X+4070920Y+2104750D01*
X+4070920Y+2152375D01*
X+4086160Y+2168250D01*
X+4101400Y+2168250D01*
X+4116640Y+2152375D01*
X+4131880Y+2168250D01*
X+4147120Y+2168250D01*
X+4162360Y+2152375D01*
X+4162360Y+2104750D01*
X+4147120Y+2088875D01*
X+4116640Y+2120625D02*
X+4116640Y+2152375D01*
X+4031000Y+2376000D02*
X+3269000Y+2376000D01*
X+3269000Y+3392000D02*
X+4031000Y+3392000D01*
X+4031000Y+2376000D02*
X+4031000Y+3392000D01*
X+3269000Y+2376000D02*
X+3269000Y+3392000D01*
X+3197880Y+2757000D02*
X+3213120Y+2757000D01*
X+3228360Y+2772875D01*
X+3228360Y+2836375D01*
X+3213120Y+2852250D01*
X+3136920Y+2852250D01*
X+3197880Y+2979250D02*
X+3197880Y+2884000D01*
X+3136920Y+2947500D01*
X+3228360Y+2947500D01*
X+1213000Y+1393000D02*
X+1467000Y+1393000D01*
X+1467000Y+2409000D01*
X+1213000Y+2409000D01*
X+1213000Y+1393000D01*
X+1141880Y+1774000D02*
X+1157120Y+1774000D01*
X+1172360Y+1789875D01*
X+1172360Y+1853375D01*
X+1157120Y+1869250D01*
X+1080920Y+1869250D01*
X+1096160Y+1996250D02*
X+1080920Y+1980375D01*
X+1080920Y+1932750D01*
X+1096160Y+1916875D01*
X+1157120Y+1916875D01*
X+1172360Y+1932750D01*
X+1172360Y+1980375D01*
X+1157120Y+1996250D01*
X+1141880Y+1996250D01*
X+1126640Y+1980375D01*
X+1126640Y+1916875D01*
X+5474280Y+2613250D02*
X+5489520Y+2597375D01*
X+5489520Y+2549750D01*
X+5459040Y+2518000D01*
X+5428560Y+2518000D01*
X+5398080Y+2549750D01*
X+5398080Y+2597375D01*
X+5413320Y+2613250D01*
X+5398080Y+2740250D02*
X+5398080Y+2660875D01*
X+5428560Y+2660875D01*
X+5428560Y+2724375D01*
X+5443800Y+2740250D01*
X+5474280Y+2740250D01*
X+5489520Y+2724375D01*
X+5489520Y+2676750D01*
X+5474280Y+2660875D01*
X+2017000Y+10000D02*
X+2016573Y+20409D01*
X+2013101Y+41228D01*
X+2005845Y+62047D01*
X+1994017Y+82866D01*
X+1975920Y+103524D01*
X+1955101Y+119045D01*
X+1934282Y+129030D01*
X+1913463Y+134814D01*
X+1892644Y+136972D01*
X+1890000Y+137000D01*
X+1763000Y+10000D02*
X+1763427Y+20409D01*
X+1766899Y+41228D01*
X+1774155Y+62047D01*
X+1785983Y+82866D01*
X+1804080Y+103524D01*
X+1824899Y+119045D01*
X+1845718Y+129030D01*
X+1866537Y+134814D01*
X+1887356Y+136972D01*
X+1890000Y+137000D01*
X+1763000Y+10000D02*
X+1763427Y-409D01*
X+1766899Y-21228D01*
X+1774155Y-42047D01*
X+1785983Y-62866D01*
X+1804080Y-83524D01*
X+1824899Y-99045D01*
X+1845718Y-109030D01*
X+1866537Y-114814D01*
X+1887356Y-116972D01*
X+1890000Y-117000D01*
X+2017000Y+10000D02*
X+2016573Y-409D01*
X+2013101Y-21228D01*
X+2005845Y-42047D01*
X+1994017Y-62866D01*
X+1975920Y-83524D01*
X+1955101Y-99045D01*
X+1934282Y-109030D01*
X+1913463Y-114814D01*
X+1892644Y-116972D01*
X+1890000Y-117000D01*
X+1953500Y+10000D02*
X+1953283Y+15247D01*
X+1951518Y+25742D01*
X+1947826Y+36237D01*
X+1941798Y+46732D01*
X+1932576Y+57112D01*
X+1922081Y+64800D01*
X+1911586Y+69718D01*
X+1901091Y+72524D01*
X+1890596Y+73497D01*
X+1890000Y+73500D01*
X+1826500Y+10000D02*
X+1826717Y+15247D01*
X+1828482Y+25742D01*
X+1832174Y+36237D01*
X+1838202Y+46732D01*
X+1847424Y+57112D01*
X+1857919Y+64800D01*
X+1868414Y+69718D01*
X+1878909Y+72524D01*
X+1889404Y+73497D01*
X+1890000Y+73500D01*
X+1826500Y+10000D02*
X+1826717Y+4753D01*
X+1828482Y-5742D01*
X+1832174Y-16237D01*
X+1838202Y-26732D01*
X+1847424Y-37112D01*
X+1857919Y-44800D01*
X+1868414Y-49718D01*
X+1878909Y-52524D01*
X+1889404Y-53497D01*
X+1890000Y-53500D01*
X+1953500Y+10000D02*
X+1953283Y+4753D01*
X+1951518Y-5742D01*
X+1947826Y-16237D01*
X+1941798Y-26732D01*
X+1932576Y-37112D01*
X+1922081Y-44800D01*
X+1911586Y-49718D01*
X+1901091Y-52524D01*
X+1890596Y-53497D01*
X+1890000Y-53500D01*
X+1763000Y+208120D02*
X+1763000Y+192880D01*
X+1778875Y+177640D01*
X+1842375Y+177640D01*
X+1858250Y+192880D01*
X+1858250Y+269080D01*
X+1985250Y+269080D02*
X+1905875Y+269080D01*
X+1905875Y+238600D01*
X+1969375Y+238600D01*
X+1985250Y+223360D01*
X+1985250Y+192880D01*
X+1969375Y+177640D01*
X+1921750Y+177640D01*
X+1905875Y+192880D01*
X+5076000Y+4119000D02*
X+5076000Y+4881000D01*
X+6092000Y+4881000D02*
X+6092000Y+4119000D01*
X+5076000Y+4119000D02*
X+6092000Y+4119000D01*
X+5076000Y+4881000D02*
X+6092000Y+4881000D01*
X+5457000Y+4952120D02*
X+5457000Y+4936880D01*
X+5472875Y+4921640D01*
X+5536375Y+4921640D01*
X+5552250Y+4936880D01*
X+5552250Y+5013080D01*
X+5615750Y+4967360D02*
X+5599875Y+4982600D01*
X+5599875Y+4997840D01*
X+5615750Y+5013080D01*
X+5663375Y+5013080D01*
X+5679250Y+4997840D01*
X+5679250Y+4982600D01*
X+5663375Y+4967360D01*
X+5615750Y+4967360D01*
X+5599875Y+4952120D01*
X+5599875Y+4936880D01*
X+5615750Y+4921640D01*
X+5663375Y+4921640D01*
X+5679250Y+4936880D01*
X+5679250Y+4952120D01*
X+5663375Y+4967360D01*
X+3131000Y-84000D02*
X+2369000Y-84000D01*
X+2369000Y+932000D02*
X+3131000Y+932000D01*
X+3131000Y-84000D02*
X+3131000Y+932000D01*
X+2369000Y-84000D02*
X+2369000Y+932000D01*
X+2297880Y+297000D02*
X+2313120Y+297000D01*
X+2328360Y+312875D01*
X+2328360Y+376375D01*
X+2313120Y+392250D01*
X+2236920Y+392250D01*
X+2267400Y+519250D02*
X+2282640Y+503375D01*
X+2282640Y+455750D01*
X+2267400Y+439875D01*
X+2252160Y+439875D01*
X+2236920Y+455750D01*
X+2236920Y+503375D01*
X+2252160Y+519250D01*
X+2313120Y+519250D01*
X+2328360Y+503375D01*
X+2328360Y+455750D01*
X+4987000Y+40000D02*
X+4986573Y+50409D01*
X+4983101Y+71228D01*
X+4975845Y+92047D01*
X+4964017Y+112866D01*
X+4945920Y+133524D01*
X+4925101Y+149045D01*
X+4904282Y+159030D01*
X+4883463Y+164814D01*
X+4862644Y+166972D01*
X+4860000Y+167000D01*
X+4733000Y+40000D02*
X+4733427Y+50409D01*
X+4736899Y+71228D01*
X+4744155Y+92047D01*
X+4755983Y+112866D01*
X+4774080Y+133524D01*
X+4794899Y+149045D01*
X+4815718Y+159030D01*
X+4836537Y+164814D01*
X+4857356Y+166972D01*
X+4860000Y+167000D01*
X+4733000Y+40000D02*
X+4733427Y+29591D01*
X+4736899Y+8772D01*
X+4744155Y-12047D01*
X+4755983Y-32866D01*
X+4774080Y-53524D01*
X+4794899Y-69045D01*
X+4815718Y-79030D01*
X+4836537Y-84814D01*
X+4857356Y-86972D01*
X+4860000Y-87000D01*
X+4987000Y+40000D02*
X+4986573Y+29591D01*
X+4983101Y+8772D01*
X+4975845Y-12047D01*
X+4964017Y-32866D01*
X+4945920Y-53524D01*
X+4925101Y-69045D01*
X+4904282Y-79030D01*
X+4883463Y-84814D01*
X+4862644Y-86972D01*
X+4860000Y-87000D01*
X+4923500Y+40000D02*
X+4923283Y+45247D01*
X+4921518Y+55742D01*
X+4917826Y+66237D01*
X+4911798Y+76732D01*
X+4902576Y+87112D01*
X+4892081Y+94800D01*
X+4881586Y+99718D01*
X+4871091Y+102524D01*
X+4860596Y+103497D01*
X+4860000Y+103500D01*
X+4796500Y+40000D02*
X+4796717Y+45247D01*
X+4798482Y+55742D01*
X+4802174Y+66237D01*
X+4808202Y+76732D01*
X+4817424Y+87112D01*
X+4827919Y+94800D01*
X+4838414Y+99718D01*
X+4848909Y+102524D01*
X+4859404Y+103497D01*
X+4860000Y+103500D01*
X+4796500Y+40000D02*
X+4796717Y+34753D01*
X+4798482Y+24258D01*
X+4802174Y+13763D01*
X+4808202Y+3268D01*
X+4817424Y-7112D01*
X+4827919Y-14800D01*
X+4838414Y-19718D01*
X+4848909Y-22524D01*
X+4859404Y-23497D01*
X+4860000Y-23500D01*
X+4923500Y+40000D02*
X+4923283Y+34753D01*
X+4921518Y+24258D01*
X+4917826Y+13763D01*
X+4911798Y+3268D01*
X+4902576Y-7112D01*
X+4892081Y-14800D01*
X+4881586Y-19718D01*
X+4871091Y-22524D01*
X+4860596Y-23497D01*
X+4860000Y-23500D01*
X+4669500Y+238120D02*
X+4669500Y+222880D01*
X+4685375Y+207640D01*
X+4748875Y+207640D01*
X+4764750Y+222880D01*
X+4764750Y+299080D01*
X+4828250Y+268600D02*
X+4860000Y+299080D01*
X+4860000Y+207640D01*
X+4923500Y+222880D02*
X+4923500Y+283840D01*
X+4939375Y+299080D01*
X+5002875Y+299080D01*
X+5018750Y+283840D01*
X+5018750Y+222880D01*
X+5002875Y+207640D01*
X+4939375Y+207640D01*
X+4923500Y+222880D01*
X+4923500Y+207640D02*
X+5018750Y+299080D01*
X+5867000Y+3730000D02*
X+5866573Y+3740409D01*
X+5863101Y+3761228D01*
X+5855845Y+3782047D01*
X+5844017Y+3802866D01*
X+5825920Y+3823524D01*
X+5805101Y+3839045D01*
X+5784282Y+3849030D01*
X+5763463Y+3854814D01*
X+5742644Y+3856972D01*
X+5740000Y+3857000D01*
X+5613000Y+3730000D02*
X+5613427Y+3740409D01*
X+5616899Y+3761228D01*
X+5624155Y+3782047D01*
X+5635983Y+3802866D01*
X+5654080Y+3823524D01*
X+5674899Y+3839045D01*
X+5695718Y+3849030D01*
X+5716537Y+3854814D01*
X+5737356Y+3856972D01*
X+5740000Y+3857000D01*
X+5613000Y+3730000D02*
X+5613427Y+3719591D01*
X+5616899Y+3698772D01*
X+5624155Y+3677953D01*
X+5635983Y+3657134D01*
X+5654080Y+3636476D01*
X+5674899Y+3620955D01*
X+5695718Y+3610970D01*
X+5716537Y+3605186D01*
X+5737356Y+3603028D01*
X+5740000Y+3603000D01*
X+5867000Y+3730000D02*
X+5866573Y+3719591D01*
X+5863101Y+3698772D01*
X+5855845Y+3677953D01*
X+5844017Y+3657134D01*
X+5825920Y+3636476D01*
X+5805101Y+3620955D01*
X+5784282Y+3610970D01*
X+5763463Y+3605186D01*
X+5742644Y+3603028D01*
X+5740000Y+3603000D01*
X+5803500Y+3730000D02*
X+5803283Y+3735247D01*
X+5801518Y+3745742D01*
X+5797826Y+3756237D01*
X+5791798Y+3766732D01*
X+5782576Y+3777112D01*
X+5772081Y+3784800D01*
X+5761586Y+3789718D01*
X+5751091Y+3792524D01*
X+5740596Y+3793497D01*
X+5740000Y+3793500D01*
X+5676500Y+3730000D02*
X+5676717Y+3735247D01*
X+5678482Y+3745742D01*
X+5682174Y+3756237D01*
X+5688202Y+3766732D01*
X+5697424Y+3777112D01*
X+5707919Y+3784800D01*
X+5718414Y+3789718D01*
X+5728909Y+3792524D01*
X+5739404Y+3793497D01*
X+5740000Y+3793500D01*
X+5676500Y+3730000D02*
X+5676717Y+3724753D01*
X+5678482Y+3714258D01*
X+5682174Y+3703763D01*
X+5688202Y+3693268D01*
X+5697424Y+3682888D01*
X+5707919Y+3675200D01*
X+5718414Y+3670282D01*
X+5728909Y+3667476D01*
X+5739404Y+3666503D01*
X+5740000Y+3666500D01*
X+5803500Y+3730000D02*
X+5803283Y+3724753D01*
X+5801518Y+3714258D01*
X+5797826Y+3703763D01*
X+5791798Y+3693268D01*
X+5782576Y+3682888D01*
X+5772081Y+3675200D01*
X+5761586Y+3670282D01*
X+5751091Y+3667476D01*
X+5740596Y+3666503D01*
X+5740000Y+3666500D01*
X+5549500Y+3928120D02*
X+5549500Y+3912880D01*
X+5565375Y+3897640D01*
X+5628875Y+3897640D01*
X+5644750Y+3912880D01*
X+5644750Y+3989080D01*
X+5708250Y+3958600D02*
X+5740000Y+3989080D01*
X+5740000Y+3897640D01*
X+5835250Y+3958600D02*
X+5867000Y+3989080D01*
X+5867000Y+3897640D01*
X+4547000Y+380000D02*
X+4546573Y+390409D01*
X+4543101Y+411228D01*
X+4535845Y+432047D01*
X+4524017Y+452866D01*
X+4505920Y+473524D01*
X+4485101Y+489045D01*
X+4464282Y+499030D01*
X+4443463Y+504814D01*
X+4422644Y+506972D01*
X+4420000Y+507000D01*
X+4293000Y+380000D02*
X+4293427Y+390409D01*
X+4296899Y+411228D01*
X+4304155Y+432047D01*
X+4315983Y+452866D01*
X+4334080Y+473524D01*
X+4354899Y+489045D01*
X+4375718Y+499030D01*
X+4396537Y+504814D01*
X+4417356Y+506972D01*
X+4420000Y+507000D01*
X+4293000Y+380000D02*
X+4293427Y+369591D01*
X+4296899Y+348772D01*
X+4304155Y+327953D01*
X+4315983Y+307134D01*
X+4334080Y+286476D01*
X+4354899Y+270955D01*
X+4375718Y+260970D01*
X+4396537Y+255186D01*
X+4417356Y+253028D01*
X+4420000Y+253000D01*
X+4547000Y+380000D02*
X+4546573Y+369591D01*
X+4543101Y+348772D01*
X+4535845Y+327953D01*
X+4524017Y+307134D01*
X+4505920Y+286476D01*
X+4485101Y+270955D01*
X+4464282Y+260970D01*
X+4443463Y+255186D01*
X+4422644Y+253028D01*
X+4420000Y+253000D01*
X+4483500Y+380000D02*
X+4483283Y+385247D01*
X+4481518Y+395742D01*
X+4477826Y+406237D01*
X+4471798Y+416732D01*
X+4462576Y+427112D01*
X+4452081Y+434800D01*
X+4441586Y+439718D01*
X+4431091Y+442524D01*
X+4420596Y+443497D01*
X+4420000Y+443500D01*
X+4356500Y+380000D02*
X+4356717Y+385247D01*
X+4358482Y+395742D01*
X+4362174Y+406237D01*
X+4368202Y+416732D01*
X+4377424Y+427112D01*
X+4387919Y+434800D01*
X+4398414Y+439718D01*
X+4408909Y+442524D01*
X+4419404Y+443497D01*
X+4420000Y+443500D01*
X+4356500Y+380000D02*
X+4356717Y+374753D01*
X+4358482Y+364258D01*
X+4362174Y+353763D01*
X+4368202Y+343268D01*
X+4377424Y+332888D01*
X+4387919Y+325200D01*
X+4398414Y+320282D01*
X+4408909Y+317476D01*
X+4419404Y+316503D01*
X+4420000Y+316500D01*
X+4483500Y+380000D02*
X+4483283Y+374753D01*
X+4481518Y+364258D01*
X+4477826Y+353763D01*
X+4471798Y+343268D01*
X+4462576Y+332888D01*
X+4452081Y+325200D01*
X+4441586Y+320282D01*
X+4431091Y+317476D01*
X+4420596Y+316503D01*
X+4420000Y+316500D01*
X+4219500Y+578120D02*
X+4219500Y+562880D01*
X+4235375Y+547640D01*
X+4298875Y+547640D01*
X+4314750Y+562880D01*
X+4314750Y+639080D01*
X+4378250Y+608600D02*
X+4410000Y+639080D01*
X+4410000Y+547640D01*
X+4489375Y+623840D02*
X+4505250Y+639080D01*
X+4552875Y+639080D01*
X+4568750Y+623840D01*
X+4568750Y+608600D01*
X+4552875Y+593360D01*
X+4505250Y+593360D01*
X+4489375Y+578120D01*
X+4489375Y+547640D01*
X+4568750Y+547640D01*
M02*
