G04 PROTEUS GERBER X2 FILE*
%TF.GenerationSoftware,Labcenter,Proteus,9.1-SP4-Build42914*%
%TF.CreationDate,2026-04-21T21:53:04+00:00*%
%TF.FileFunction,Soldermask,Bot*%
%TF.FilePolarity,Negative*%
%TF.Part,Single*%
%TF.SameCoordinates,{34693d12-abab-4ff1-bf86-ec1edc0fcc21}*%
%FSLAX45Y45*%
%MOMM*%
G01*
%TA.AperFunction,Material*%
%ADD27C,1.270000*%
%ADD28C,0.812800*%
%TA.AperFunction,Material*%
%ADD72C,1.778000*%
%AMPPAD026*
4,1,36,
-1.143000,-1.016000,
-1.143000,1.016000,
-1.140420,1.041590,
-1.133020,1.065430,
-1.121310,1.087000,
-1.105800,1.105800,
-1.087000,1.121310,
-1.065430,1.133020,
-1.041590,1.140420,
-1.016000,1.143000,
1.016000,1.143000,
1.041590,1.140420,
1.065430,1.133020,
1.087000,1.121310,
1.105800,1.105800,
1.121310,1.087000,
1.133020,1.065430,
1.140420,1.041590,
1.143000,1.016000,
1.143000,-1.016000,
1.140420,-1.041590,
1.133020,-1.065430,
1.121310,-1.087000,
1.105800,-1.105800,
1.087000,-1.121310,
1.065430,-1.133020,
1.041590,-1.140420,
1.016000,-1.143000,
-1.016000,-1.143000,
-1.041590,-1.140420,
-1.065430,-1.133020,
-1.087000,-1.121310,
-1.105800,-1.105800,
-1.121310,-1.087000,
-1.133020,-1.065430,
-1.140420,-1.041590,
-1.143000,-1.016000,
0*%
%TA.AperFunction,Material*%
%ADD32PPAD026*%
%TA.AperFunction,Material*%
%ADD33C,2.286000*%
%TA.AperFunction,Material*%
%ADD34C,3.302000*%
%AMPPAD030*
4,1,4,
0.304800,-0.279400,
0.304800,0.279400,
-0.304800,0.279400,
-0.304800,-0.279400,
0.304800,-0.279400,
0*%
%ADD36PPAD030*%
%AMPPAD031*
4,1,4,
0.304800,-0.304800,
0.304800,0.304800,
-0.304800,0.304800,
-0.304800,-0.304800,
0.304800,-0.304800,
0*%
%ADD37PPAD031*%
%AMPPAD032*
4,1,4,
0.723900,-0.571500,
0.723900,0.571500,
-0.723900,0.571500,
-0.723900,-0.571500,
0.723900,-0.571500,
0*%
%ADD38PPAD032*%
%AMPPAD033*
4,1,4,
-0.571500,-0.723900,
0.571500,-0.723900,
0.571500,0.723900,
-0.571500,0.723900,
-0.571500,-0.723900,
0*%
%ADD39PPAD033*%
%TA.AperFunction,Profile*%
%ADD21C,0.203200*%
%TD.AperFunction*%
D27*
X+843000Y+2545500D03*
X+5161000Y+2037500D03*
X+5318104Y+2383883D03*
X+3065500Y+2863000D03*
X+2606187Y+2597067D03*
D28*
X+4653000Y+1212000D03*
X+4970500Y+2418500D03*
X+4526000Y+1974000D03*
X+4653000Y+2736000D03*
X+4589500Y+2926500D03*
X+4653000Y+3053500D03*
D27*
X+2557500Y+3180500D03*
X+1414500Y+3561500D03*
X+2557500Y+2863000D03*
X+5542000Y+2609000D03*
X+1541500Y+3561500D03*
X+1414500Y+3434500D03*
D28*
X+1541500Y+2418500D03*
X+6050000Y+2291500D03*
X+6558000Y+2799500D03*
X+6494500Y+2418500D03*
X+970000Y+2355000D03*
X+6875500Y+196000D03*
X+6177000Y+2799500D03*
X+6113500Y+2926500D03*
X+5986500Y+3053500D03*
X+5923000Y+1847000D03*
X+3573500Y+2418500D03*
X+3510000Y+2355000D03*
D27*
X+3401353Y+1622146D03*
X+2270000Y+2210000D03*
X+3377091Y+812406D03*
X+2700000Y+1910000D03*
D28*
X+3700500Y+640500D03*
X+3700500Y+1910500D03*
D27*
X+3741554Y+899985D03*
X+3910000Y+1000000D03*
X+5732500Y+1275500D03*
X+1329555Y+2633097D03*
D28*
X+1126000Y+4866000D03*
X+880000Y+4220000D03*
D27*
X+1668500Y+2672500D03*
X+2049500Y+1466000D03*
D72*
X+651000Y+4866000D03*
X+270000Y+4612000D03*
X+651000Y+4612000D03*
X+270000Y+4358000D03*
X+651000Y+4358000D03*
X+270000Y+4104000D03*
X+651000Y+4104000D03*
X+270000Y+3850000D03*
X+651000Y+3850000D03*
X+270000Y+3596000D03*
X+651000Y+3596000D03*
X+270000Y+3342000D03*
X+651000Y+3342000D03*
X+270000Y+3088000D03*
X+651000Y+3088000D03*
X+270000Y+2834000D03*
X+651000Y+2834000D03*
X+270000Y+2580000D03*
X+651000Y+2580000D03*
X+270000Y+2326000D03*
X+651000Y+2326000D03*
X+270000Y+2072000D03*
X+651000Y+2072000D03*
X+270000Y+1818000D03*
X+651000Y+1818000D03*
X+270000Y+1564000D03*
X+651000Y+1564000D03*
X+270000Y+1310000D03*
X+651000Y+1310000D03*
X+270000Y+1056000D03*
X+651000Y+1056000D03*
X+270000Y+802000D03*
X+651000Y+802000D03*
X+270000Y+548000D03*
X+651000Y+548000D03*
X+270000Y+294000D03*
X+651000Y+294000D03*
X+6747000Y+4870000D03*
X+6366000Y+4616000D03*
X+6747000Y+4616000D03*
X+6366000Y+4362000D03*
X+6747000Y+4362000D03*
X+6366000Y+4108000D03*
X+6747000Y+4108000D03*
X+6366000Y+3854000D03*
X+6747000Y+3854000D03*
X+6366000Y+3600000D03*
X+6747000Y+3600000D03*
X+6366000Y+3346000D03*
X+6747000Y+3346000D03*
X+6366000Y+3092000D03*
X+6747000Y+3092000D03*
X+6366000Y+2838000D03*
X+6747000Y+2838000D03*
X+6366000Y+2584000D03*
X+6747000Y+2584000D03*
X+6366000Y+2330000D03*
X+6747000Y+2330000D03*
X+6366000Y+2076000D03*
X+6747000Y+2076000D03*
X+6366000Y+1822000D03*
X+6747000Y+1822000D03*
X+6366000Y+1568000D03*
X+6747000Y+1568000D03*
X+6366000Y+1314000D03*
X+6747000Y+1314000D03*
X+6366000Y+1060000D03*
X+6747000Y+1060000D03*
X+6366000Y+806000D03*
X+6747000Y+806000D03*
X+6366000Y+552000D03*
X+6747000Y+552000D03*
X+6366000Y+298000D03*
X+6747000Y+298000D03*
D32*
X+1350000Y+390000D03*
X+1350000Y+644000D03*
X+1350000Y+898000D03*
X+1350000Y+1152000D03*
X+1640000Y+4930000D03*
X+1640000Y+4676000D03*
X+1640000Y+4422000D03*
X+1640000Y+4168000D03*
D33*
X+3480000Y+668000D03*
X+3480000Y+414000D03*
X+3480000Y+160000D03*
D32*
X+4330000Y+930000D03*
X+4330000Y+1184000D03*
X+4330000Y+1438000D03*
X+4330000Y+1692000D03*
X+4330000Y+1946000D03*
X+4330000Y+2200000D03*
X+4330000Y+2454000D03*
X+4330000Y+2708000D03*
X+4330000Y+2962000D03*
X+4330000Y+3216000D03*
D34*
X+3650000Y+2630000D03*
X+3650000Y+3130380D03*
D32*
X+1340000Y+1520000D03*
X+1340000Y+1774000D03*
X+1340000Y+2028000D03*
X+1340000Y+2282000D03*
D36*
X+1210000Y+4870000D03*
X+1210000Y+4970000D03*
X+1180000Y+4540000D03*
X+1180000Y+4640000D03*
X+1150000Y+4120000D03*
X+1150000Y+4220000D03*
D37*
X+2130000Y+3270000D03*
X+2040000Y+3270000D03*
X+3290000Y+1790000D03*
X+3380000Y+1790000D03*
D33*
X+1890000Y+10000D03*
D37*
X+2330000Y+2500000D03*
X+2240000Y+2500000D03*
D34*
X+5330000Y+4500000D03*
X+5830380Y+4500000D03*
X+2750000Y+170000D03*
X+2750000Y+670380D03*
D33*
X+4860000Y+40000D03*
X+5740000Y+3730000D03*
X+4420000Y+380000D03*
D38*
X+870000Y+3760000D03*
X+870000Y+3940000D03*
D39*
X+990000Y+2680000D03*
X+1170000Y+2680000D03*
X+2410000Y+290000D03*
X+2230000Y+290000D03*
X+5510000Y+4850000D03*
X+5690000Y+4850000D03*
D21*
X+10000Y-10000D02*
X+1660000Y-10000D01*
X+7010000Y-10000D02*
X+7010000Y+5990000D01*
X+5010000Y+5990000D01*
X+5010000Y+3690000D01*
X+4810000Y+3490000D01*
X+2210000Y+3490000D01*
X+2010000Y+3690000D02*
X+2010000Y+5990000D01*
X+10000Y+5990000D01*
X+10000Y-10000D01*
X+2010000Y+3690000D02*
X+2210000Y+3490000D01*
X+5170000Y-10000D02*
X+7010000Y-10000D01*
X+1760000Y-210000D02*
X+5060000Y-210000D01*
X+1660000Y-10000D02*
X+1760000Y-210000D01*
X+5170000Y-10000D02*
X+5060000Y-210000D01*
X+4560045Y+40000D02*
X+4559508Y+53142D01*
X+4555144Y+79427D01*
X+4546029Y+105712D01*
X+4531182Y+131997D01*
X+4508470Y+158118D01*
X+4482185Y+177898D01*
X+4455900Y+190658D01*
X+4429615Y+198108D01*
X+4403330Y+200987D01*
X+4399000Y+201045D01*
X+4237955Y+40000D02*
X+4238492Y+53142D01*
X+4242856Y+79427D01*
X+4251971Y+105712D01*
X+4266818Y+131997D01*
X+4289530Y+158118D01*
X+4315815Y+177898D01*
X+4342100Y+190658D01*
X+4368385Y+198108D01*
X+4394670Y+200987D01*
X+4399000Y+201045D01*
X+4237955Y+40000D02*
X+4238492Y+26858D01*
X+4242856Y+573D01*
X+4251971Y-25712D01*
X+4266818Y-51997D01*
X+4289530Y-78118D01*
X+4315815Y-97898D01*
X+4342100Y-110658D01*
X+4368385Y-118108D01*
X+4394670Y-120987D01*
X+4399000Y-121045D01*
X+4560045Y+40000D02*
X+4559508Y+26858D01*
X+4555144Y+573D01*
X+4546029Y-25712D01*
X+4531182Y-51997D01*
X+4508470Y-78118D01*
X+4482185Y-97898D01*
X+4455900Y-110658D01*
X+4429615Y-118108D01*
X+4403330Y-120987D01*
X+4399000Y-121045D01*
X+6084045Y+5120000D02*
X+6083508Y+5133142D01*
X+6079144Y+5159427D01*
X+6070029Y+5185712D01*
X+6055182Y+5211997D01*
X+6032470Y+5238118D01*
X+6006185Y+5257898D01*
X+5979900Y+5270658D01*
X+5953615Y+5278108D01*
X+5927330Y+5280987D01*
X+5923000Y+5281045D01*
X+5761955Y+5120000D02*
X+5762492Y+5133142D01*
X+5766856Y+5159427D01*
X+5775971Y+5185712D01*
X+5790818Y+5211997D01*
X+5813530Y+5238118D01*
X+5839815Y+5257898D01*
X+5866100Y+5270658D01*
X+5892385Y+5278108D01*
X+5918670Y+5280987D01*
X+5923000Y+5281045D01*
X+5761955Y+5120000D02*
X+5762492Y+5106858D01*
X+5766856Y+5080573D01*
X+5775971Y+5054288D01*
X+5790818Y+5028003D01*
X+5813530Y+5001882D01*
X+5839815Y+4982102D01*
X+5866100Y+4969342D01*
X+5892385Y+4961892D01*
X+5918670Y+4959013D01*
X+5923000Y+4958955D01*
X+6084045Y+5120000D02*
X+6083508Y+5106858D01*
X+6079144Y+5080573D01*
X+6070029Y+5054288D01*
X+6055182Y+5028003D01*
X+6032470Y+5001882D01*
X+6006185Y+4982102D01*
X+5979900Y+4969342D01*
X+5953615Y+4961892D01*
X+5927330Y+4959013D01*
X+5923000Y+4958955D01*
X+1258045Y+5247000D02*
X+1257508Y+5260142D01*
X+1253144Y+5286427D01*
X+1244029Y+5312712D01*
X+1229182Y+5338997D01*
X+1206470Y+5365118D01*
X+1180185Y+5384898D01*
X+1153900Y+5397658D01*
X+1127615Y+5405108D01*
X+1101330Y+5407987D01*
X+1097000Y+5408045D01*
X+935955Y+5247000D02*
X+936492Y+5260142D01*
X+940856Y+5286427D01*
X+949971Y+5312712D01*
X+964818Y+5338997D01*
X+987530Y+5365118D01*
X+1013815Y+5384898D01*
X+1040100Y+5397658D01*
X+1066385Y+5405108D01*
X+1092670Y+5407987D01*
X+1097000Y+5408045D01*
X+935955Y+5247000D02*
X+936492Y+5233858D01*
X+940856Y+5207573D01*
X+949971Y+5181288D01*
X+964818Y+5155003D01*
X+987530Y+5128882D01*
X+1013815Y+5109102D01*
X+1040100Y+5096342D01*
X+1066385Y+5088892D01*
X+1092670Y+5086013D01*
X+1097000Y+5085955D01*
X+1258045Y+5247000D02*
X+1257508Y+5233858D01*
X+1253144Y+5207573D01*
X+1244029Y+5181288D01*
X+1229182Y+5155003D01*
X+1206470Y+5128882D01*
X+1180185Y+5109102D01*
X+1153900Y+5096342D01*
X+1127615Y+5088892D01*
X+1101330Y+5086013D01*
X+1097000Y+5085955D01*
M02*
